<?xml version="1.0"?>
<svg width="640" height="480" xmlns="http://www.w3.org/2000/svg" xmlns:svg="http://www.w3.org/2000/svg">
 <!-- Created with SVG-edit - https://github.com/SVG-Edit/svgedit-->

 <g class="layer">
  <title>Layer 1</title>
  <path d="m123.486626,210.395908c33.996932,-0.016425 112.239246,-0.299325 150.385684,-0.328977c0,13.644449 0,27.289107 0,40.933756c27.207967,-27.142651 54.415925,-54.285293 81.6239,-81.427952c-26.661013,-26.440005 -53.3218,-52.88021 -79.982595,-79.320215c-0.656368,12.583174 -1.312728,25.166365 -1.96908,37.749739c-49.709821,-0.304336 -99.464925,0.899588 -149.133679,-1.398862c0.513503,-60.180891 125.464969,-102.212179 177.59325,-66.256998c28.760282,20.529184 51.688311,47.42059 60.464777,80.616501c2.568933,18.4926 2.047013,37.400529 0.489454,55.967063c-5.539758,30.337064 -26.052918,56.010117 -49.741268,74.807279c-17.023003,13.203252 -37.7305,22.533903 -59.595442,22.295685c-62.84799,7.752483 -103.67776,-29.110127 -130.135,-83.637028l0,0.000008z" fill="#007f7f" id="svg_6" opacity="0.75" stroke="#000000" stroke-dasharray="null" stroke-linecap="null" stroke-linejoin="null" stroke-width="5"/>
  <text fill="#000000" font-family="Cursive" font-size="47" font-weight="bold" id="svg_9" opacity="0.75" stroke="#000000" stroke-dasharray="null" stroke-linecap="null" stroke-linejoin="null" stroke-width="0" text-anchor="middle" x="201.5" xml:space="preserve" y="185.5">A.R.</text>
 </g>
</svg>